<svg xmlns="http://www.w3.org/2000/svg" viewBox="0 0 180 56.71"><path d="M45.12,27.1c0-.66-.72-1-1.2-1.2a2.77,2.77,0,0,0-2.54.88c-.15.08-.25-.08-.3-.16a3.47,3.47,0,0,0-3.38-1.36,13.18,13.18,0,0,0-6.65,2.8,18.08,18.08,0,0,0-6.11,7.41,15.49,15.49,0,0,1-2.18,1A2,2,0,0,1,21,36.35a.94.94,0,0,1,0-.7c.76-1.7,2.38-2.82,3.65-4s2.59-2.42,3.76-3.65c.57-.85,1.39-1.51,1.39-2.63,0-.86-.77-1.23-1.41-1.49s-1.36.47-1.94,1c-3.18,2.92-6,5.83-9,9h-.18a5.74,5.74,0,0,0-1.07-1A2.13,2.13,0,0,0,14.5,33c-1.33.51-.95,2.16-1.74,3.09-.77,1.17-2.1,1.57-3.19,2.18a2.81,2.81,0,0,0-.77.4c-.36.19-.77.24-1.15.4a4.6,4.6,0,0,1-3.48-.21,1.47,1.47,0,0,1-.44-1.17,8.81,8.81,0,0,1,1.15-2.32A29.14,29.14,0,0,1,7.8,31.68a11.93,11.93,0,0,0,1-1.3c1.1-1.15,2.28-2.37,3.46-3.46a50.59,50.59,0,0,1,5-4.43c1.15-1,2.45-1.94,3.68-2.85.8-.64,2-1.33,1.64-2.55a3.89,3.89,0,0,0-1.79-1.71,2,2,0,0,0-1.82.35,13.93,13.93,0,0,1-2.84,2.74c-2.38,1.92-4.68,4.08-6.9,6.15a20.48,20.48,0,0,1-2.71,2.72,38.93,38.93,0,0,0-3.87,4.45C1.76,33.36.61,34.72.33,36.56a4,4,0,0,0-.23.93l0,.16A12.15,12.15,0,0,0,.1,40.21a4.82,4.82,0,0,0,3.51,3.3c1.81.61,3.58-.32,5.19-.88l0-.08a3.28,3.28,0,0,0,.54-.24,16.1,16.1,0,0,0,2.94-1.65c1.22-.75,2.4-2,3.6-2.85.08,0,.16-.05.21,0a3.68,3.68,0,0,0,1.69,2.59c.1.08.28,0,.33.13a3.25,3.25,0,0,0,1.61,0A19.81,19.81,0,0,0,25,38.05h.18c.33.32.51.8,1,1a3.28,3.28,0,0,0,2.87.4c.05,0,.05.11.05.16-1.36,1.68-3,3.14-4.17,4.82-1.41,1.39-2.4,2.83-3.63,4.24-1.28,1.81-2.79,3.49-3.43,5.59a2.39,2.39,0,0,0,.72,2,2.26,2.26,0,0,0,2.09.32,7.38,7.38,0,0,0,1.72-1.76,59.61,59.61,0,0,1,5-7c1.27-1.28,2.3-2.9,3.58-4.16,2.15-2.34,4.17-4.63,6.44-6.92S42,31.84,44.1,29.34a4.52,4.52,0,0,0,1-2.24M38.54,30c-1.17,1.14-2.27,2.13-3.53,3.2a11.66,11.66,0,0,1-3.6,1.7c-.33,0-.69.08-.95-.13a1.06,1.06,0,0,1-.41-1l.46-.61a17,17,0,0,1,2.2-2.21A9.8,9.8,0,0,1,36.6,29c.74,0,1.61,0,2,.77Z" fill="#231f20"/><path d="M33.66,22.63c1.79.1,2.71-1.65,3.76-2.85.92-.88,2-1.25,3-2.05a2.7,2.7,0,0,0,1.05-2.16,2.38,2.38,0,0,0-1.74-1.89c-1.84,0-2.79,1.83-4.07,3-1,1.12-3,1.79-3.14,3.57l-.08.08a3.37,3.37,0,0,0,.16,1.54,1.46,1.46,0,0,0,1.07.78" fill="#231f20"/><path d="M72.15,30.86c-.66-.64-1.68-.11-2.4.1-.23,0-.38.19-.59.24a34.46,34.46,0,0,1-4.42,2.22A26.29,26.29,0,0,1,61.39,35c-.16,0-.41.08-.52-.1a.35.35,0,0,1-.1-.38,14.81,14.81,0,0,1,.95-2c1.48-2.18,3-4.21,4.6-6.28.39-.43,1-.22,1.56-.35,1.46,0,2.66-.21,4.07-.29,1.53-.38,3.3.5,4.81-.32a2.63,2.63,0,0,0,.89-2.53c-.2-.48-.25-1.15-.82-1.36a4.09,4.09,0,0,0-2-.11c-1.17.05-2.25.35-3.4.4-.28,0-.59.13-.79-.08A16.18,16.18,0,0,1,72.1,20.1c.28-.3.59-.51.87-.83a3.3,3.3,0,0,0,1.59-2.82,2.78,2.78,0,0,0-2-1.79c-.56-.26-.94.35-1.3.62-1.38,1.35-2.79,3-4.14,4.28-.7.83-1.46,1.73-2.2,2.51a1.28,1.28,0,0,1-.77.53,14,14,0,0,1-1.82.16l-.1-.08a1.65,1.65,0,0,0-.08-1.44c-.46-.53-1.2-.42-1.86-.4a27.36,27.36,0,0,0-4.61,2,.06.06,0,0,1,0-.08c1-1.15,2.12-2.32,3.07-3.55a4,4,0,0,0,1.36-2.77,2.55,2.55,0,0,0-1.54-1.57c-.13,0-.28-.13-.38,0-2,2.11-3.94,3.84-5.86,6V21C51.23,22.12,50,23.32,49,24.52c-1.62,1.68-3,3.43-4.45,5.17-1.05,1-1.82,2.42-2.77,3.49-.76,1.27-2,2.34-1.86,4,.1.19.1.43.18.61s.35.59.66.59c.64.16,1.33-.37,1.84-.83,1.49-1.78,2.92-3.49,4.45-5.27a39.69,39.69,0,0,1,4.27-3.86c.85-.38,1.46-1.41,2.48-1,.21.18.11.5,0,.69a13.11,13.11,0,0,1-1.56,2.42l-.05.16c-.49.85-1.46.91-2.23,1.31a5.57,5.57,0,0,0-1.71,2.34c0,.19-.15.32-.13.48-.15.35,0,.77-.08,1.12a1.37,1.37,0,0,0,.82,1c1,.32,2.1.51,2.84-.35.16-.23.44-.37.49-.63.89-1.18,1.69-2.32,2.58-3.49,1.38-2,2.89-3.84,4.35-5.68a6.55,6.55,0,0,1,1.46-.24.13.13,0,0,1,.15.16,47.44,47.44,0,0,0-3.09,4.69,16,16,0,0,0-2.1,5c-.13,1-.31,2.45.66,3.08a4.75,4.75,0,0,0,2.36.62,9.16,9.16,0,0,0,3.5-.91c.82-.29,1.59-.72,2.38-1.09,1.46-.77,2.87-1.68,4.4-2.32,1-.56,2.28-.32,3.22-1a2.39,2.39,0,0,0,.69-2.15,5,5,0,0,0-.64-1.68" fill="#231f20"/><path d="M179.79,21.32a2.1,2.1,0,0,0-1.92-1.25c-.08,0-.16-.05-.23,0a9.3,9.3,0,0,0-1.18,0c-.08.05-.13,0-.23,0-2,0-3.89.16-5.78.19-2.17.24-4.35.24-6.55.37-1,.06-2.2.11-3.25.19-3.32,0-6.6.8-10,.21a6.78,6.78,0,0,0-2.5.16,2.78,2.78,0,0,0-2,2,4.08,4.08,0,0,1-1.31,2.19,45.87,45.87,0,0,0-3.27,4.26c-.16.19-.18.45-.44.51a2.53,2.53,0,0,0-2.5-.32c-1.85.45-2.77,2.79-4.53,3.38a1.61,1.61,0,0,1-1.77-.35,3,3,0,0,1,.06-2.42,14.57,14.57,0,0,1,3.45-4.8,5,5,0,0,1,2.48-1.22c.08.08.18.1.18.24a2.4,2.4,0,0,0,.59,2,2.33,2.33,0,0,0,2.22-.43A3.62,3.62,0,0,0,143,22.84a3,3,0,0,0-1.84-2,4.94,4.94,0,0,0-2.1-.16,12.7,12.7,0,0,0-4.88,1.54A17.31,17.31,0,0,0,130,25.74l-.13,0c-.05-.05,0-.08,0-.13a2.45,2.45,0,0,0,.2-1.39c-1-2.48-3.48-3.7-5.88-4.1a19,19,0,0,0-4.48-.4,8.93,8.93,0,0,0-2.07.4,1.81,1.81,0,0,0-1,1.54A13.21,13.21,0,0,1,114,25.77l-.07-.05a7.16,7.16,0,0,0-.9-3.2c-.87-1.78-2.89-2.34-4.7-2.21-1.28,0-2.61,1-3.79.13-.26-.16-.31-.61-.64-.56A24.09,24.09,0,0,0,101,21.67a16.7,16.7,0,0,0-5.24,4.9.92.92,0,0,1-.43.61.08.08,0,0,1,0-.08,2.65,2.65,0,0,0,0-1.94.93.93,0,0,0-1-.53,29,29,0,0,1-3.55.53c-1.15.05-2.38.05-3.56.1-.07,0-.15-.05-.15-.13l.84-.91c.49-.45.85-1.14,1.46-1.43.69,0,1.59-.11,2.28-.08a25.1,25.1,0,0,0,4.42,0,10.68,10.68,0,0,0,3.3-.64,3,3,0,0,0,1.77-2.43,1.28,1.28,0,0,0-.62-.82c-.64-.4-1.58-.16-2.25-.22-.89.11-1.71,0-2.58.14-1.59-.08-2.94.13-4.45,0-.18-.08-.23-.27-.33-.43-.31-.37-.62-.8-1.15-.64a10.66,10.66,0,0,1-1.36,1.17c-1.07.14-2.48.19-2.89,1.42-.23.42,0,.93-.1,1.38a16.34,16.34,0,0,1-1.31,1.44c-1.38,1.22-2.94,2.74-4.27,4.1s-2.71,2.67-3.89,4.08a14.71,14.71,0,0,0-2.58,4.15l-.23,1.07a2.44,2.44,0,0,0,0,1.14,1.33,1.33,0,0,0,.39.91,1.94,1.94,0,0,0,2.22.56c1.46-1,1.95-2.83,2.87-4.29a26.48,26.48,0,0,1,3.6-4.42c.36-.32.67-1.12,1.31-.91.64-.16,1.33-.08,2-.18,2-.24,3.74-.35,5.68-.51,1.33-.27,2.74-.35,3.79-1.28,0,0,.13-.13.18,0v.1a10.18,10.18,0,0,0-1.77,5.89,5.74,5.74,0,0,0,2.38,4.31,5,5,0,0,0,3,.8c2.94.11,5.47-1.12,8-2.32.1,0,.2-.13.3,0a3.36,3.36,0,0,0,.13.85,2.13,2.13,0,0,0,1.56,1.47c.46.27.92-.08,1.26-.35a42.75,42.75,0,0,0,3.86-5.11c.15-.21.28-.53.59-.53a13,13,0,0,1,3.94,3.14,36.25,36.25,0,0,1,3.17,4.37c.84,1.2,1,2.71,2.07,3.78a2.59,2.59,0,0,0,2.61.61,3.36,3.36,0,0,0,1-2.63,12.17,12.17,0,0,0-1.49-3.76,30.35,30.35,0,0,0-5.11-6.85l0-.08c.08-.16.28-.13.41-.21a19.69,19.69,0,0,0,6.14-2.58,14.4,14.4,0,0,0,1.56-1.07c.05,0,.05.08.05.14a10.29,10.29,0,0,0-1.53,3.14,6.31,6.31,0,0,0-.26,1.44,5.46,5.46,0,0,0,1.33,4.39,4.08,4.08,0,0,0,2.23,1.41,8,8,0,0,0,3.09-.29,14.23,14.23,0,0,0,5.55-2.77.24.24,0,0,1,.15-.19c.26-.08.41-.53.69-.4a5.46,5.46,0,0,0,1,2.69,4.47,4.47,0,0,0,4.5,1,44.93,44.93,0,0,1,7.08-2.37c1.33-.48,3-.43,4-1.6a2.25,2.25,0,0,0,.4-2.05,2,2,0,0,0-1.56-1.44c-1.91-.19-3.55.88-5.24,1.49a25.05,25.05,0,0,1-3.79,1.23,2.21,2.21,0,0,1-1.12-.11.38.38,0,0,1-.15-.34,3.23,3.23,0,0,1,.87-1.71,14.49,14.49,0,0,1,4.45-.69,19,19,0,0,0,4.63-1,2.16,2.16,0,0,0,1.35-1.86,1.25,1.25,0,0,0-.54-1.26,6.64,6.64,0,0,0-3.4,0,30.35,30.35,0,0,1-3.89.58c-.07,0-.05-.08-.07-.1A8.4,8.4,0,0,1,149.71,25a25.78,25.78,0,0,1,4.06-.58c.08,0,.18,0,.23,0,1.05-.16,2.13-.27,3.15-.38,1.87-.23,3.63-.18,5.52-.34,2.07-.11,4.05-.29,6.14-.43a19.06,19.06,0,0,1,3.1.3c1.2.08,2.38.47,3.58.56,1.48.29,3.3.31,4.22-1a1.78,1.78,0,0,0,.08-1.81m-69.91,6.47C108,30.59,105,32.46,102.26,34a4,4,0,0,1-3.1.34A2,2,0,0,1,98,32.86c-.1-1,.54-1.71.82-2.59a21,21,0,0,1,3.94-5.14c.36-.21.69-.83,1.12-.48,1.36,1,3.12.24,4.56-.08.69,0,1.46,0,1.79.67a3.31,3.31,0,0,1-.31,2.55m14.17-2.29a15,15,0,0,1-2.94,1.36c-1.1.27-2.12.67-3.25.88l-.13,0c.21-.43.51-.72.74-1.12.64-1,1.28-1.89,2-2.83.18-.26.51-.23.82-.26,1.12.08,2.45-.24,3.32.53a.8.8,0,0,1,.21.67c-.1.42-.49.56-.77.82" fill="#231f20"/><path d="M158.68,32a1.89,1.89,0,0,1,.14-.72,1.71,1.71,0,0,1,.38-.59,1.9,1.9,0,0,1,.57-.4,1.69,1.69,0,0,1,1.39,0,1.78,1.78,0,0,1,.57.4,1.71,1.71,0,0,1,.38.59,1.92,1.92,0,0,1,0,1.44,1.81,1.81,0,0,1-.38.59,1.78,1.78,0,0,1-.57.4,1.8,1.8,0,0,1-1.39,0,1.9,1.9,0,0,1-.57-.4,1.81,1.81,0,0,1-.38-.59,1.89,1.89,0,0,1-.14-.72m1.79,1.55a1.39,1.39,0,0,0,1-.45,1.6,1.6,0,0,0,.32-.49,1.74,1.74,0,0,0,.11-.61,1.78,1.78,0,0,0-.11-.61,1.49,1.49,0,0,0-.32-.49,1.46,1.46,0,0,0-1-.46,1.41,1.41,0,0,0-.58.13,1.39,1.39,0,0,0-.46.33,1.49,1.49,0,0,0-.32.49A1.78,1.78,0,0,0,159,32a1.74,1.74,0,0,0,.11.61,1.6,1.6,0,0,0,.32.49,1.39,1.39,0,0,0,.46.33,1.4,1.4,0,0,0,.58.12M159.75,31h.81a.76.76,0,0,1,.53.16.59.59,0,0,1,.18.48.53.53,0,0,1-.16.43.67.67,0,0,1-.4.17l.6.93H161l-.58-.91h-.34v.91h-.32Zm.66,1h.21l.17,0a.32.32,0,0,0,.12-.11.33.33,0,0,0,.05-.19.43.43,0,0,0,0-.17.24.24,0,0,0-.11-.09l-.14-.05h-.6v.66Z" fill="#231f20"/><rect x="67.83" width="44.35" height="5.74" fill="#ffce01"/></svg>